HIERARCHY
ROOT hip
{
	OFFSET 0.000000 0.000000 0.000000 
	CHANNELS 6 Xposition Yposition Zposition Xrotation Zrotation Yrotation
	JOINT abdomen
	{
		OFFSET 0.000000 3.402643 0.000000 
		CHANNELS 3 Xrotation Zrotation Yrotation
		JOINT chest
		{
			OFFSET 0.000000 8.438565 -0.680529 
			CHANNELS 3 Xrotation Zrotation Yrotation
			JOINT neck
			{
				OFFSET 0.000000 10.207942 -0.272212 
				CHANNELS 3 Xrotation Zrotation Yrotation
				JOINT head
				{
					OFFSET 0.000000 3.130431 0.000000 
					CHANNELS 3 Xrotation Zrotation Yrotation
					End Site
					{
						OFFSET 0.000000 3.130435 0.000000 
					}
				}
			}
			JOINT lCollar
			{
				OFFSET 3.470700 6.669187 -0.816635 
				CHANNELS 3 Yrotation Zrotation Xrotation
				JOINT lShldr
				{
					OFFSET 3.198488 0.000000 0.000000 
					CHANNELS 3 Zrotation Yrotation Xrotation
					JOINT lForeArm
					{
						OFFSET 10.139888 0.000000 0.000000 
						CHANNELS 3 Yrotation Zrotation Xrotation
						JOINT lHand
						{
							OFFSET 8.370511 0.000000 0.000000 
							CHANNELS 3 Zrotation Yrotation Xrotation
							End Site
							{
								OFFSET 4.083176 0.000000 0.000000 
							}
						}
					}
				}
			}
			JOINT rCollar
			{
				OFFSET -3.470700 6.669187 -0.816635 
				CHANNELS 3 Yrotation Zrotation Xrotation
				JOINT rShldr
				{
					OFFSET -3.198488 0.000000 0.000000 
					CHANNELS 3 Zrotation Yrotation Xrotation
					JOINT rForeArm
					{
						OFFSET -10.139888 0.000000 0.000000 
						CHANNELS 3 Yrotation Zrotation Xrotation
						JOINT rHand
						{
							OFFSET -8.370511 0.000000 0.000000 
							CHANNELS 3 Zrotation Yrotation Xrotation
							End Site
							{
								OFFSET -4.083176 0.000000 0.000000 
							}
						}
					}
				}
			}
		}
	}
	JOINT lThigh
	{
		OFFSET 5.308129 -1.633274 1.361059 
		CHANNELS 3 Xrotation Zrotation Yrotation
		JOINT lShin
		{
			OFFSET -2.041588 -20.007561 0.000000 
			CHANNELS 3 Xrotation Zrotation Yrotation
			JOINT lFoot
			{
				OFFSET 0.000000 -19.190928 -1.224953 
				CHANNELS 3 Xrotation Yrotation Zrotation
				End Site
				{
					OFFSET 0.000000 -2.449906 4.627600 
				}
			}
		}
	}
	JOINT rThigh
	{
		OFFSET -5.308129 -1.633274 1.361059 
		CHANNELS 3 Xrotation Zrotation Yrotation
		JOINT rShin
		{
			OFFSET 2.041588 -20.007561 0.000000 
			CHANNELS 3 Xrotation Zrotation Yrotation
			JOINT rFoot
			{
				OFFSET 0.000000 -19.190928 -1.224953 
				CHANNELS 3 Xrotation Yrotation Zrotation
				End Site
				{
					OFFSET 0.000000 -2.449906 4.627600 
				}
			}
		}
	}
}
MOTION
Frames: 8
Frame Time: 0.011111
109.845650 50.950077 -1.343307 -2.034903 7.534099 -89.172112 21.659611 -9.286882 4.133099 -30.335882 2.917467 1.913026 -12.065200 -5.569738 -0.877393 45.689060 7.418189 -3.592261 -10.275489 -5.709454 -1.550532 -77.428917 -5.394133 -4.911359 -91.842735 7.046756 36.260052 8.524705 12.647240 -68.333389 5.831508 6.350754 -0.460990 73.155174 4.770339 -34.061611 67.587624 -9.370949 15.922031 -8.534408 -12.637552 -152.086075 -19.541506 3.699026 1.839132 35.917152 -4.972030 -5.600149 -31.912973 2.809878 0.257242 -1.738385 -5.876872 -9.862670 34.409744 5.061821 5.387179 -13.681150 -14.306988 0.115226 
110.186279 50.956490 -1.429395 -1.308726 6.743187 -89.567368 22.768898 -8.015244 5.031535 -30.281504 1.775049 2.088717 -12.172453 -5.524474 -0.881698 44.814617 7.765025 -3.383955 -10.275489 -5.709454 -1.550532 -77.532356 -5.831475 -5.778634 -90.478539 6.158883 35.448090 8.524705 12.647240 -66.712296 5.831508 6.350754 -0.460990 73.262878 6.482875 -33.934879 67.164261 -9.396405 15.719820 -8.534408 -12.637552 -153.404434 -19.998463 4.618925 1.745001 37.286304 -4.870856 -5.767801 -35.433044 0.945399 -0.115914 -0.761537 -5.041454 -9.974485 33.745949 5.087449 5.296945 -13.123889 -13.287488 0.438323 
110.498230 50.919018 -1.492864 -0.480514 5.888560 -90.026428 23.941099 -6.793366 6.079527 -30.366611 1.022548 2.280402 -12.186388 -5.569480 -0.950467 43.956623 8.062637 -3.353685 -10.275489 -5.709454 -1.550532 -78.031578 -5.956676 -6.403636 -89.187492 5.140624 34.574963 8.524705 12.647240 -65.891975 5.831508 6.350754 -0.460990 72.978882 7.846437 -33.383305 66.803802 -9.415106 15.553638 -8.534408 -12.637552 -154.234512 -20.609880 5.613838 1.617630 39.138027 -4.734884 -5.992387 -35.756004 0.891636 -0.084314 0.243881 -4.176871 -10.116781 33.316715 5.124777 5.249969 -13.439829 -12.225706 0.530073 
110.739616 50.895046 -1.585028 0.286160 5.967236 -90.175926 23.764273 -5.779260 6.774647 -30.239227 0.896950 2.353498 -12.028232 -5.762630 -1.042011 43.004425 8.382607 -3.437775 -10.275489 -5.709454 -1.550532 -78.577988 -5.991707 -6.763556 -88.124733 4.105632 33.722687 8.524705 12.647240 -65.003304 5.831508 6.350754 -0.460990 72.386162 8.664050 -32.334568 66.697533 -9.418688 15.493380 -8.534408 -12.637552 -154.488419 -22.280996 6.571183 1.324052 40.858608 -4.598301 -6.202240 -35.140625 1.365344 0.094644 0.272304 -3.362367 -10.254855 33.009644 5.134133 5.206285 -14.769220 -11.210556 0.412184 
110.983017 50.802547 -1.689346 0.692136 5.920428 -90.409515 23.856430 -5.175072 7.090027 -30.278103 0.820817 2.360649 -11.928000 -6.003162 -1.065997 42.100204 8.862231 -3.341913 -10.275489 -5.709454 -1.550532 -79.217079 -5.855835 -7.591019 -87.389870 3.220117 32.946880 8.524705 12.647240 -65.393929 5.831508 6.350754 -0.460990 71.896729 9.434499 -30.829790 66.751427 -9.418871 15.528726 -8.534408 -12.637552 -154.429825 -23.785566 7.186609 1.138560 42.586838 -4.462154 -6.390781 -34.541920 1.775088 0.216837 0.262990 -2.945808 -10.402578 32.839134 5.154102 5.186548 -16.148897 -9.944677 0.385863 
111.224411 50.757305 -1.833839 0.796106 5.655681 -90.199844 24.416758 -4.884045 6.725009 -30.600924 0.978177 2.232768 -11.943006 -6.129876 -1.097716 41.331120 9.156255 -3.321234 -10.275489 -5.709454 -1.550532 -79.743340 -5.539365 -8.240661 -86.871140 2.441481 32.188740 8.524705 12.647240 -66.028694 5.831508 6.350754 -0.460990 71.416489 10.294565 -29.230659 66.835358 -9.412050 15.556902 -8.534408 -12.637552 -154.459122 -24.936859 7.420551 0.829878 44.086811 -4.335529 -6.541275 -33.595722 2.019523 0.150000 0.516011 -2.746969 -10.947876 32.650578 5.163455 5.153204 -18.106800 -8.430855 0.351884 
111.374969 50.768784 -1.954024 0.909377 5.266292 -90.330727 24.886850 -4.765629 6.712586 -30.786398 0.984343 2.219882 -11.809395 -6.017003 -1.300369 40.317493 9.404685 -3.569082 -10.275489 -5.709454 -1.550532 -79.830444 -4.989183 -8.444676 -86.553253 1.849065 31.467077 8.524705 12.647240 -67.141975 5.831508 6.350754 -0.460990 71.236702 11.168829 -27.831612 67.026802 -9.404498 15.656002 -8.534408 -12.637552 -154.390778 -25.877094 7.763219 0.692351 45.297806 -4.238348 -6.694972 -32.647743 1.812758 -0.133106 0.966290 -2.578686 -11.456775 32.380955 5.181484 5.133835 -17.832544 -7.977617 0.510831 
111.515076 50.795456 -2.077248 1.201440 4.788204 -90.290863 25.484932 -4.503032 6.736009 -31.001297 1.029287 2.192396 -11.532022 -6.002483 -1.534780 39.009071 9.857033 -3.821507 -10.275489 -5.709454 -1.550532 -79.805458 -4.556681 -8.510461 -86.367409 1.454497 30.746359 8.524705 12.647240 -68.968147 5.831508 6.350754 -0.460990 71.128754 12.090516 -26.603209 67.301567 -9.387706 15.783761 -8.534408 -12.637552 -154.068512 -26.621414 8.301051 0.591378 46.183193 -4.176005 -6.794733 -31.556742 1.451229 -0.585354 1.725758 -1.997576 -11.405105 31.803448 5.212612 5.061890 -17.957420 -8.152765 0.446523 
